<svg width="128" height="128" viewBox="0 0 128 128" fill="none" xmlns="http://www.w3.org/2000/svg">
<path opacity="0.07" d="M54.4361 0.299867L128 71.4912L54.4197 69.2126C53.8765 69.1984 53.2839 68.4294 53.4156 67.9167L60.823 39.4629L97.8929 55.5269L60.3785 34.3219L53.432 0.613172C53.3003 -0.0419194 53.8929 -0.212813 54.4361 0.299867Z" fill="url(#paint0_linear_174_479)"/>
<path opacity="0.4" d="M48.7901 3.84577L122.354 75.0371L48.7737 72.7585C48.2305 72.7443 47.6379 71.9753 47.7696 71.4626L55.1605 43.0231L92.2305 59.0871L54.749 37.8678L47.786 4.15907C47.6543 3.50398 48.2469 3.33309 48.7901 3.84577Z" fill="url(#paint1_linear_174_479)"/>
<path opacity="0.3" d="M54.2059 79.0532L5.21826 54.5869L5.23472 76.6749L49.8932 98.9765L54.2224 104.516L54.2059 79.0532Z" fill="url(#paint2_linear_174_479)"/>
<path d="M0 63.203V57.2075L18.4856 66.4358V72.4313L0 63.203Z" fill="#C3753C"/>
<path opacity="0.15" d="M41.6131 78.142L30.8806 72.7874V74.7242L41.6131 80.0789V78.142Z" fill="black"/>
<path opacity="0.15" d="M41.6132 82.0153L20.9219 71.6904V73.6272L41.6132 83.9521V82.0153Z" fill="black"/>
<path opacity="0.15" d="M41.6298 85.9032L16.5598 73.3853V75.322L41.6298 87.84V85.9032Z" fill="black"/>
<path d="M44.2634 81.4744C44.2634 83.2973 45.5145 85.3907 47.0453 86.1597C48.5762 86.9288 49.8272 86.0743 49.8272 84.2514C49.8272 82.4285 48.5762 80.3351 47.0453 79.566C45.498 78.797 44.2634 79.6515 44.2634 81.4744Z" fill="#C3753C"/>
<path opacity="0.3" d="M58.4363 60.8105L107.424 85.2768L107.44 107.365L62.7655 85.0489L58.4527 86.2737L58.4363 60.8105Z" fill="url(#paint3_linear_174_479)"/>
<path d="M93.1687 89.1645V83.1689L111.654 92.3972V98.3927L93.1687 89.1645Z" fill="#C3753C" fill-opacity="0.5"/>
<path opacity="0.15" d="M71.0288 72.4739L81.7613 77.8286V79.7654L71.0288 74.4107V72.4739Z" fill="black"/>
<path opacity="0.15" d="M71.0288 76.3616L90.4033 86.0314V87.9682L71.0288 78.2984V76.3616Z" fill="black"/>
<path opacity="0.15" d="M71.0454 80.2354L96.1154 92.7533V94.6901L71.0454 82.1721V80.2354Z" fill="black"/>
<path d="M68.3951 73.1715C68.3951 74.9944 67.1441 75.8489 65.6132 75.0798C64.0823 74.3108 62.8313 72.2174 62.8313 70.3945C62.8313 68.5717 64.0823 67.7172 65.6132 68.4862C67.1441 69.2552 68.3951 71.3629 68.3951 73.1715Z" fill="#C3753C" fill-opacity="0.5"/>
<path opacity="0.2" d="M114.124 114.813L84.8726 100.201V113.388L114.124 128V114.813Z" fill="url(#paint4_linear_174_479)"/>
<path opacity="0.15" d="M92.3621 107.123L101.152 111.523V113.104L92.3621 108.703V107.123Z" fill="black"/>
<path opacity="0.15" d="M92.3621 110.298L111.095 119.655V121.264L92.3621 111.908V110.298Z" fill="black"/>
<path d="M90.8149 107.592C90.8149 108.675 90.0741 109.187 89.1523 108.732C88.2305 108.276 87.4897 107.023 87.4897 105.941C87.4897 104.858 88.2305 104.346 89.1523 104.801C90.0741 105.257 90.8149 106.51 90.8149 107.592Z" fill="#C3753C" fill-opacity="0.5"/>
<path opacity="0.2" d="M33.1358 94.5904L3.88477 79.979V93.1663L33.1358 107.778V94.5904Z" fill="url(#paint5_linear_174_479)"/>
<path opacity="0.15" d="M11.3745 86.9001L20.1646 91.3007V92.8814L11.3745 88.4809V86.9001Z" fill="black"/>
<path opacity="0.15" d="M11.3745 90.0759L30.107 99.4323V101.042L11.3745 91.6852V90.0759Z" fill="black"/>
<path d="M9.8273 87.37C9.8273 88.4523 9.08656 88.965 8.16475 88.5093C7.24294 88.0536 6.5022 86.8004 6.5022 85.7181C6.5022 84.6358 7.24294 84.1231 8.16475 84.5788C9.08656 85.0345 9.8273 86.2877 9.8273 87.37Z" fill="#C3753C"/>
<path opacity="0.2" d="M37.3334 52.6503L30.2881 49.1328V47.082L37.3334 50.5996C37.9095 50.8844 38.749 51.4683 39.4568 52.3655C40.2305 53.3196 40.7737 54.5301 40.7737 55.8403C40.7737 57.2929 40.3457 58.1189 39.5391 58.3468C38.7819 58.5604 37.8766 58.1901 37.3334 57.9195L34.4362 56.4669L34.4198 56.4527C34.1729 56.3245 33.7778 56.1963 33.465 56.2818C33.2017 56.353 32.9218 56.5666 32.9218 57.3784C32.9218 58.1901 33.2181 58.6743 33.4486 58.9734C33.7449 59.3436 34.1399 59.6 34.3868 59.7139L34.4198 59.7281L43.2757 64.1571V66.2079L34.4692 61.8074C33.8601 61.5368 32.9877 60.9529 32.2305 60.0415C31.4074 59.0303 30.8478 57.7629 30.8478 56.353C30.8478 54.9431 31.4074 54.2311 32.214 54.0317C32.9712 53.8466 33.8436 54.1171 34.4527 54.4304L37.3169 55.8546C37.7284 56.0682 38.0412 56.1536 38.2552 56.0967C38.4198 56.0539 38.7161 55.8546 38.7161 54.815C38.7161 54.1314 38.4692 53.6899 38.2222 53.4051C37.9424 53.0348 37.5638 52.7642 37.3334 52.6503Z" fill="black"/>
<path d="M31.5721 48.6913C31.5721 50.5284 30.3211 51.3971 28.7902 50.6423C27.2593 49.8733 26.0083 47.7656 26.0083 45.9142C26.0083 44.0771 27.2593 43.2084 28.7902 43.9632C30.3211 44.7322 31.5721 46.8542 31.5721 48.6913Z" fill="#C3753C"/>
<path d="M46.8807 66.9198C46.8807 68.7569 45.6297 69.6256 44.0988 68.8708C42.5679 68.1018 41.3169 65.9941 41.3169 64.1428C41.3169 62.3057 42.5679 61.4369 44.0988 62.1917C45.6297 62.9607 46.8807 65.0827 46.8807 66.9198Z" fill="#C3753C" fill-opacity="0.5"/>
<path opacity="0.2" d="M66.4363 96.3562V108.361C66.4363 108.49 66.5844 108.632 66.6832 108.589L69.926 106.866L73.2347 111.936C73.4157 112.207 73.7285 112.235 73.7285 111.979V100.016L66.4363 96.3562Z" fill="url(#paint6_linear_174_479)"/>
<defs>
<linearGradient id="paint0_linear_174_479" x1="100.451" y1="24.7327" x2="72.8281" y2="66.8963" gradientUnits="userSpaceOnUse">
<stop/>
<stop offset="1" stop-opacity="0"/>
</linearGradient>
<linearGradient id="paint1_linear_174_479" x1="94.8121" y1="28.28" x2="67.1897" y2="70.4436" gradientUnits="userSpaceOnUse">
<stop/>
<stop offset="1" stop-opacity="0"/>
</linearGradient>
<linearGradient id="paint2_linear_174_479" x1="43.5269" y1="70.2017" x2="21.0989" y2="90.4993" gradientUnits="userSpaceOnUse">
<stop/>
<stop offset="1" stop-opacity="0"/>
</linearGradient>
<linearGradient id="paint3_linear_174_479" x1="79.4797" y1="61.5221" x2="84.2376" y2="106.127" gradientUnits="userSpaceOnUse">
<stop/>
<stop offset="1" stop-opacity="0"/>
</linearGradient>
<linearGradient id="paint4_linear_174_479" x1="102.795" y1="109.157" x2="97.5256" y2="119.71" gradientUnits="userSpaceOnUse">
<stop/>
<stop offset="1" stop-opacity="0"/>
</linearGradient>
<linearGradient id="paint5_linear_174_479" x1="21.8076" y1="88.9342" x2="16.5379" y2="99.4873" gradientUnits="userSpaceOnUse">
<stop/>
<stop offset="1" stop-opacity="0"/>
</linearGradient>
<linearGradient id="paint6_linear_174_479" x1="73.2358" y1="102.493" x2="65.6644" y2="108.035" gradientUnits="userSpaceOnUse">
<stop/>
<stop offset="1" stop-opacity="0"/>
</linearGradient>
</defs>
</svg>
