<svg width="96" height="96" viewBox="0 0 96 96" fill="none" xmlns="http://www.w3.org/2000/svg">
<path d="M6.11999 91.7174C5.30714 91.7166 4.51051 91.4899 3.81899 91.0626C3.12748 90.6354 2.56826 90.0244 2.20375 89.2979C1.83924 88.5714 1.68376 87.7578 1.75467 86.9481C1.82558 86.1383 2.12008 85.3642 2.60532 84.7121C5.58673 80.7018 8.77598 76.8503 12.16 73.1734C10.016 68.0667 9.54132 61.9921 11.904 55.7494C17.064 42.1307 30.8267 40.3147 40.8773 38.9921L42.6613 38.7547C42.0507 31.7707 42.3653 25.1307 45.9253 20.0881C54.624 7.76807 65.912 7.38673 73.5787 11.1414C75.6081 12.1367 77.4754 13.4332 79.1173 14.9867C81.6377 12.0794 84.0621 9.09024 86.3867 6.02407C86.7349 5.56514 87.1702 5.1793 87.6676 4.88859C88.1649 4.59787 88.7147 4.40797 89.2855 4.32972C89.8562 4.25147 90.4368 4.28641 90.9941 4.43254C91.5514 4.57867 92.0744 4.83313 92.5333 5.1814C92.9923 5.52966 93.3781 5.96491 93.6688 6.46229C93.9595 6.95967 94.1494 7.50944 94.2277 8.08021C94.3059 8.65098 94.271 9.23158 94.1248 9.78884C93.9787 10.3461 93.7243 10.8691 93.376 11.3281C90.5119 15.1114 87.4961 18.7775 84.336 22.3174C86.7774 27.6558 87.186 33.7017 85.4853 39.3201C80.656 55.1707 64.032 58.5547 53.7867 59.6507C53.976 66.4107 52.9973 72.9627 48.9813 78.2001C42.0027 87.2934 31.536 89.8534 22.2987 84.7094C20.4048 83.6404 18.6751 82.304 17.1627 80.7414C14.5211 83.6966 12.0137 86.7691 9.64799 89.9494C9.23817 90.4984 8.70581 90.9442 8.09331 91.2511C7.48081 91.558 6.8051 91.7177 6.11999 91.7174ZM23.2347 74.4241C24.2373 75.4854 25.3707 76.3707 26.5653 77.0374C29.1467 78.4694 35.8107 80.9361 42.016 72.8534C44.4053 69.7361 45.1093 65.4161 45.0373 60.5867C38.032 62.1601 30.312 67.6294 23.2347 74.4241ZM43.7253 47.4641L42.0213 47.6881C30.7787 49.1707 23.1787 50.7467 20.1067 58.8561C19.2169 61.1608 18.9181 63.6516 19.2373 66.1014C26.5893 59.3974 35.352 53.4001 44.3093 51.7841C44.128 50.3467 43.9253 48.9041 43.7253 47.4694V47.4641ZM52.3547 45.8027L52.416 46.2561C52.6293 47.7814 52.8453 49.3361 53.0427 50.9041C61.7893 49.9787 73.8187 47.4854 77.0853 36.7601C77.8273 34.3846 77.9693 31.8624 77.4987 29.4187C70.0107 36.6267 61.5333 42.8774 52.7947 45.6667L52.3547 45.8027ZM64.7307 17.8134C60.5627 17.8134 56.4933 20.3281 53.0907 25.1467C51.224 27.7921 50.9653 32.0694 51.312 36.9014C58.9013 34.1414 66.4373 28.1867 73.136 21.4374C72.1271 20.4615 70.974 19.6466 69.7173 19.0214C68.1701 18.2407 66.4637 17.8273 64.7307 17.8134Z" fill="black"/>
<path d="M22.5654 80.7359C23.9174 79.0079 25.5094 77.8826 26.6667 77.0906L26.5654 77.0373C25.3296 76.3393 24.2066 75.4582 23.2347 74.4239C23.2347 74.4239 19.0134 78.4639 17.16 80.7359C18.2214 81.8266 19.3867 82.7439 20.5894 83.5759C21.168 82.6479 21.8294 81.6773 22.5654 80.7359ZM42.7147 61.2586C43.496 60.9973 44.272 60.7599 45.0374 60.5893C45.0374 60.5893 44.848 56.5919 44.3094 51.7839C43.3824 51.962 42.4641 52.1827 41.5574 52.4453C41.7654 53.7626 42.08 55.6159 42.5707 58.2239C42.7787 59.3306 42.7814 60.3226 42.7147 61.2586ZM69.056 25.3199C71.6848 26.7589 73.7649 29.0255 74.9734 31.7679C75.8267 30.9973 76.672 30.2159 77.5014 29.4186C77.5014 29.4186 76.704 25.0346 73.136 21.4373C71.808 22.7733 70.4427 24.0639 69.056 25.3199ZM52.416 46.2559L52.3547 45.8026C47.4907 47.0506 43.7254 47.4666 43.7254 47.4666V47.4693L44.0854 50.1253C46.9614 49.5853 49.8556 49.1477 52.7627 48.8133C52.6454 47.9599 52.5334 47.0959 52.416 46.2559ZM54.864 50.6906C54.2454 50.7706 53.6374 50.8426 53.0454 50.9039C53.5094 55.0506 53.784 59.6453 53.784 59.6453C54.4854 59.5706 55.2187 59.4826 55.9734 59.3813C55.7974 56.5653 55.2214 52.7573 54.864 50.6906Z" fill="#F2F2F2"/>
<path d="M3.74665 87.4292C3.42092 87.4276 3.10703 87.3068 2.86426 87.0896C2.62148 86.8724 2.46661 86.5739 2.42887 86.2503C2.39114 85.9268 2.47315 85.6006 2.65943 85.3334C2.8457 85.0662 3.12336 84.8764 3.43999 84.7998C6.75465 84.0078 10.864 84.7492 11.0373 84.7865C11.216 84.8112 11.3877 84.8719 11.5423 84.9649C11.6968 85.0579 11.8308 85.1813 11.9363 85.3276C12.0417 85.4739 12.1164 85.6401 12.1558 85.8161C12.1952 85.9921 12.1984 86.1742 12.1654 86.3515C12.1323 86.5288 12.0637 86.6976 11.9636 86.8476C11.8634 86.9976 11.7339 87.1257 11.5828 87.2242C11.4318 87.3227 11.2623 87.3895 11.0846 87.4206C10.907 87.4517 10.7249 87.4465 10.5493 87.4052C10.512 87.3998 6.81599 86.7358 4.05332 87.3918C3.95318 87.4177 3.85007 87.4302 3.74665 87.4292ZM8.33065 81.5172C8.00296 81.5183 7.68631 81.3987 7.44117 81.1813C7.19603 80.9638 7.03957 80.6637 7.00164 80.3382C6.96372 80.0127 7.04699 79.6846 7.23556 79.4166C7.42414 79.1486 7.70481 78.9594 8.02399 78.8852C11.3413 78.0905 15.448 78.8372 15.624 78.8718C15.8026 78.8966 15.9744 78.9573 16.1289 79.0503C16.2834 79.1433 16.4175 79.2667 16.5229 79.413C16.6284 79.5593 16.7031 79.7254 16.7424 79.9014C16.7818 80.0774 16.7851 80.2596 16.7521 80.4369C16.719 80.6142 16.6504 80.7829 16.5502 80.9329C16.4501 81.0829 16.3206 81.211 16.1695 81.3095C16.0184 81.408 15.8489 81.4748 15.6713 81.506C15.4936 81.5371 15.3115 81.5318 15.136 81.4905C15.0987 81.4852 11.4027 80.8212 8.63999 81.4772C8.53928 81.5051 8.43514 81.5185 8.33065 81.5172ZM20.664 75.6185C20.5515 75.6186 20.4395 75.6043 20.3307 75.5758C20.2933 75.5678 16.664 74.6478 13.8507 75.1092C13.6751 75.1446 13.4943 75.1442 13.3189 75.1082C13.1435 75.0722 12.9772 75.0013 12.8298 74.8996C12.6825 74.7979 12.5571 74.6676 12.4612 74.5164C12.3653 74.3652 12.3008 74.1963 12.2716 74.0196C12.2424 73.843 12.2491 73.6623 12.2912 73.4883C12.3334 73.3142 12.4101 73.1505 12.5169 73.0068C12.6237 72.8631 12.7584 72.7424 12.9129 72.6519C13.0673 72.5613 13.2384 72.5028 13.416 72.4798C16.7813 71.9145 20.824 72.9492 20.9947 72.9918C21.3108 73.0711 21.587 73.2633 21.771 73.5323C21.955 73.8013 22.0342 74.1284 21.9935 74.4517C21.9528 74.7751 21.795 75.0723 21.5501 75.2873C21.3051 75.5023 20.9899 75.6201 20.664 75.6185ZM26.6773 70.6772C26.5015 70.6764 26.3275 70.6411 26.1653 70.5732C26.128 70.5598 22.6427 68.9972 19.8213 69.1865C19.6454 69.1941 19.4698 69.1659 19.3051 69.1038C19.1404 69.0417 18.9899 68.9468 18.8628 68.825C18.7358 68.7031 18.6347 68.5568 18.5657 68.3948C18.4967 68.2328 18.4612 68.0586 18.4613 67.8825C18.4549 67.5288 18.5887 67.187 18.8335 66.9316C19.0784 66.6763 19.4143 66.5282 19.768 66.5198C23.1893 66.5145 27.0347 68.0425 27.1947 68.1145C27.4814 68.2315 27.7184 68.4449 27.8648 68.7178C28.0111 68.9908 28.0577 69.3063 27.9964 69.6099C27.9351 69.9135 27.7698 70.1862 27.529 70.3811C27.2882 70.5759 26.987 70.6806 26.6773 70.6772ZM32.6 66.0132C32.35 66.0139 32.1049 65.9436 31.8933 65.8105C31.8613 65.7892 28.672 63.8132 25.8587 63.4105C25.6853 63.3857 25.5185 63.3269 25.3679 63.2376C25.2172 63.1483 25.0857 63.0302 24.9807 62.8901C24.8757 62.7499 24.7993 62.5904 24.756 62.4208C24.7126 62.2511 24.7031 62.0745 24.728 61.9012C24.7827 61.5532 24.9711 61.2404 25.253 61.0292C25.5349 60.8181 25.888 60.7252 26.2373 60.7705C29.6133 61.2558 33.1573 63.4585 33.3067 63.5518C33.5509 63.7058 33.7386 63.9349 33.8415 64.2046C33.9444 64.4744 33.957 64.7703 33.8773 65.0478C33.7976 65.3253 33.63 65.5695 33.3997 65.7436C33.1693 65.9176 32.8887 66.0123 32.6 66.0132ZM39.272 62.3492C38.96 62.3497 38.6578 62.2402 38.4187 62.0398C38.3893 62.0132 35.5013 59.6185 32.7707 58.8345C32.4308 58.7366 32.1438 58.5076 31.9728 58.1981C31.8018 57.8885 31.7607 57.5237 31.8587 57.1838C31.9566 56.844 32.1855 56.557 32.4951 56.386C32.8047 56.2149 33.1695 56.1739 33.5093 56.2718C36.7867 57.2158 39.9973 59.8825 40.1333 59.9945C40.3432 60.1706 40.4937 60.4071 40.5644 60.6718C40.6351 60.9365 40.6225 61.2166 40.5284 61.4739C40.4343 61.7312 40.2632 61.9533 40.0384 62.1099C39.8136 62.2665 39.546 62.35 39.272 62.3492ZM62.488 57.8932C62.2932 57.8934 62.1007 57.8508 61.9242 57.7683C61.7477 57.6858 61.5915 57.5655 61.4667 57.4158C61.44 57.3865 59.0187 54.5225 56.4693 53.2665C56.3123 53.1893 56.1719 53.0819 56.0564 52.9505C55.9408 52.819 55.8523 52.6661 55.7958 52.5004C55.7394 52.3348 55.7161 52.1596 55.7273 51.985C55.7386 51.8103 55.7841 51.6396 55.8613 51.4825C55.9385 51.3254 56.0459 51.1851 56.1774 51.0696C56.3088 50.954 56.4617 50.8655 56.6274 50.809C56.7931 50.7526 56.9682 50.7293 57.1429 50.7405C57.3175 50.7518 57.4883 50.7973 57.6453 50.8745C60.7067 52.3785 63.3947 55.5678 63.5093 55.7012C63.6718 55.8959 63.7756 56.1329 63.8084 56.3844C63.8412 56.6359 63.8017 56.8915 63.6946 57.1214C63.5875 57.3513 63.4171 57.546 63.2034 57.6827C62.9898 57.8193 62.7416 57.8923 62.488 57.8932ZM70.448 55.0452C70.1483 55.0451 69.8573 54.9446 69.6213 54.7598C69.592 54.7358 66.632 52.4292 63.88 51.7252C63.7104 51.6819 63.551 51.6057 63.4109 51.5008C63.2708 51.3958 63.1528 51.2643 63.0636 51.1137C62.9744 50.9631 62.9158 50.7964 62.8912 50.6231C62.8666 50.4498 62.8763 50.2733 62.92 50.1038C62.9623 49.9336 63.0379 49.7735 63.1426 49.6327C63.2472 49.492 63.3788 49.3734 63.5296 49.2839C63.6804 49.1943 63.8475 49.1356 64.0211 49.1111C64.1948 49.0866 64.3716 49.0968 64.5413 49.1412C67.8453 49.9838 71.136 52.5545 71.272 52.6638C71.4096 52.7718 71.5245 52.9059 71.6102 53.0584C71.6958 53.2109 71.7505 53.3788 71.7711 53.5525C71.7916 53.7262 71.7777 53.9023 71.73 54.0706C71.6824 54.2388 71.6019 54.3961 71.4933 54.5332C71.3695 54.6924 71.211 54.8214 71.0299 54.9101C70.8487 54.9988 70.6497 55.045 70.448 55.0452ZM78.2693 49.5065C78.1271 49.5063 77.9859 49.4838 77.8507 49.4398C77.816 49.4292 74.2533 48.2718 71.4187 48.5385C71.0686 48.5644 70.722 48.4544 70.4509 48.2314C70.1797 48.0085 70.0049 47.6897 69.9627 47.3412C69.9457 47.1668 69.9634 46.9907 70.0145 46.8231C70.0657 46.6555 70.1494 46.4997 70.2608 46.3644C70.3723 46.2292 70.5093 46.1173 70.664 46.035C70.8188 45.9528 70.9882 45.9019 71.1627 45.8852C74.544 45.5438 78.52 46.8532 78.688 46.9092C78.9874 47.0097 79.2415 47.2133 79.4048 47.4836C79.5682 47.754 79.6303 48.0735 79.58 48.3854C79.5297 48.6972 79.3704 48.9811 79.1304 49.1864C78.8903 49.3917 78.5852 49.5052 78.2693 49.5065ZM76.272 43.5545C75.9679 43.5548 75.6729 43.4512 75.4358 43.2608C75.1987 43.0705 75.0338 42.8048 74.9685 42.5078C74.9031 42.2109 74.9412 41.9005 75.0764 41.6282C75.2116 41.3558 75.4359 41.1379 75.712 41.0105C78.8053 39.5758 82.9813 39.4878 83.1547 39.4852C83.8347 39.5278 84.4986 40.0585 84.512 40.7945C84.5253 41.5305 83.9387 42.1358 83.2027 42.1518C83.1653 42.1518 79.4107 42.2345 76.832 43.4292C76.6568 43.5117 76.4656 43.5545 76.272 43.5545ZM78.9867 36.4105C78.7305 36.4101 78.4798 36.336 78.2645 36.1971C78.0492 36.0582 77.8784 35.8603 77.7725 35.627C77.6665 35.3938 77.6299 35.1349 77.6669 34.8814C77.7039 34.6279 77.8131 34.3904 77.9813 34.1972C80.2293 31.6265 84 29.8505 84.16 29.7758C84.4776 29.6463 84.8328 29.6439 85.1521 29.7691C85.4714 29.8943 85.7303 30.1374 85.8753 30.4482C86.0202 30.7591 86.0401 31.1137 85.9308 31.4388C85.8214 31.7639 85.5913 32.0344 85.288 32.1945C85.2533 32.2105 81.8613 33.8132 79.992 35.9545C79.8665 36.0976 79.7119 36.2123 79.5385 36.291C79.3652 36.3696 79.177 36.4104 78.9867 36.4105ZM78.856 28.7838C78.6469 28.7837 78.4408 28.7345 78.2543 28.64C78.0679 28.5456 77.9062 28.4086 77.7824 28.2401C77.6586 28.0717 77.5761 27.8765 77.5416 27.6703C77.5072 27.4641 77.5217 27.2527 77.584 27.0532C78.6053 23.7972 81.3493 20.6532 81.464 20.5225C81.6977 20.2566 82.0275 20.0944 82.3809 20.0717C82.7342 20.0489 83.0821 20.1674 83.348 20.4012C83.6139 20.6349 83.7761 20.9647 83.7988 21.318C83.8216 21.6714 83.7031 22.0193 83.4693 22.2852C83.4427 22.3118 80.9787 25.1438 80.1307 27.8532C80.0438 28.1231 79.8737 28.3586 79.6447 28.5258C79.4157 28.693 79.1395 28.7834 78.856 28.7838ZM75.4427 22.6612C75.1279 22.6605 74.8235 22.5485 74.5834 22.345C74.3433 22.1415 74.1829 21.8596 74.1307 21.5492C73.5627 18.1838 74.5787 14.1358 74.624 13.9652C74.6672 13.7957 74.7434 13.6364 74.8483 13.4963C74.9531 13.3563 75.0845 13.2383 75.2349 13.149C75.3853 13.0597 75.5519 13.001 75.725 12.9761C75.8981 12.9512 76.0745 12.9606 76.244 13.0038C76.4135 13.0471 76.5728 13.1233 76.7128 13.2281C76.8529 13.3329 76.9709 13.4643 77.0602 13.6147C77.1494 13.7652 77.2082 13.9317 77.2331 14.1049C77.258 14.278 77.2486 14.4544 77.2053 14.6238C77.1973 14.6612 76.2853 18.3012 76.76 21.1038C76.7917 21.2953 76.7814 21.4913 76.7298 21.6783C76.6783 21.8653 76.5867 22.0389 76.4613 22.1871C76.3361 22.3352 76.1801 22.4543 76.0042 22.5362C75.8283 22.618 75.6367 22.6607 75.4427 22.6612ZM69.3893 18.3092C69.1958 18.3095 69.0045 18.2673 68.829 18.1858C68.6535 18.1043 68.4979 17.9853 68.3733 17.8372C66.1653 15.2345 64.9706 11.2372 64.92 11.0692C64.826 10.7319 64.8684 10.3712 65.0381 10.065C65.2078 9.75872 65.4912 9.53152 65.827 9.43242C66.1628 9.33333 66.5241 9.37029 66.8329 9.53533C67.1417 9.70037 67.3731 9.98025 67.4773 10.3145C67.488 10.3492 68.568 13.9465 70.4053 16.1118C70.5703 16.3058 70.6763 16.5429 70.7108 16.7952C70.7453 17.0474 70.7069 17.3043 70.6 17.5354C70.4932 17.7665 70.3224 17.9622 70.1078 18.0993C69.8933 18.2365 69.6439 18.3093 69.3893 18.3092ZM61.1573 17.9492C61.0796 17.9496 61.002 17.9433 60.9253 17.9305C57.5627 17.3465 54.0907 15.0398 53.9413 14.9412C53.6619 14.7389 53.4717 14.4363 53.4107 14.0968C53.3497 13.7573 53.4226 13.4073 53.6142 13.1205C53.8058 12.8336 54.1011 12.6322 54.4381 12.5585C54.775 12.4848 55.1275 12.5445 55.4213 12.7252C55.4533 12.7465 58.584 14.8158 61.3813 15.3038C61.7079 15.3629 62.0007 15.5416 62.2025 15.805C62.4044 16.0685 62.5007 16.3977 62.4727 16.7284C62.4447 17.0591 62.2944 17.3675 62.0511 17.5932C61.8079 17.819 61.4892 17.9459 61.1573 17.9492ZM49.3653 23.5305C48.4951 23.5335 47.6254 23.489 46.76 23.3972C46.4088 23.3551 46.0888 23.1752 45.8703 22.8972C45.6517 22.6191 45.5526 22.2657 45.5947 21.9145C45.6367 21.5634 45.8166 21.2433 46.0946 21.0248C46.3727 20.8062 46.7262 20.7071 47.0773 20.7492C47.1093 20.7518 50.8453 21.1812 53.5573 20.3518C53.7249 20.3 53.901 20.2818 54.0756 20.2983C54.2502 20.3148 54.4199 20.3657 54.5748 20.4479C54.7296 20.5302 54.8667 20.6423 54.9782 20.7777C55.0896 20.9132 55.1731 21.0693 55.224 21.2372C55.3264 21.5756 55.2908 21.9408 55.125 22.2531C54.9591 22.5653 54.6764 22.7993 54.3387 22.9038C52.6987 23.4025 50.832 23.5305 49.3653 23.5305ZM43.88 33.9918C43.5653 33.9912 43.2609 33.8793 43.0208 33.6759C42.7806 33.4725 42.6202 33.1907 42.5678 32.8803C42.5155 32.57 42.5746 32.2512 42.7347 31.9802C42.8948 31.7093 43.1456 31.5037 43.4427 31.3998C43.4773 31.3865 47.0187 30.1385 49.096 28.2025C49.224 28.0829 49.3743 27.9897 49.5383 27.9282C49.7023 27.8667 49.8768 27.8381 50.0519 27.844C50.227 27.85 50.3992 27.8904 50.5586 27.9628C50.7181 28.0353 50.8617 28.1385 50.9813 28.2665C51.1009 28.3945 51.1941 28.5448 51.2556 28.7088C51.3171 28.8728 51.3457 29.0474 51.3398 29.2224C51.3338 29.3975 51.2935 29.5697 51.221 29.7292C51.1485 29.8886 51.0453 30.0323 50.9173 30.1518C48.4213 32.4825 44.4853 33.8638 44.3173 33.9225C44.1758 33.9674 44.0284 33.9908 43.88 33.9918ZM46.1387 56.7838C45.8445 56.781 45.5594 56.6814 45.3276 56.5004C45.0957 56.3193 44.9299 56.067 44.8558 55.7822C44.7818 55.4975 44.8036 55.1964 44.9178 54.9253C45.0321 54.6542 45.2325 54.4283 45.488 54.2825C45.52 54.2638 48.7947 52.4292 50.5067 50.1625C50.6122 50.0228 50.7443 49.9052 50.8953 49.8165C51.0463 49.7278 51.2133 49.6698 51.3868 49.6456C51.5603 49.6215 51.7368 49.6317 51.9063 49.6758C52.0758 49.7199 52.2349 49.7969 52.3746 49.9025C52.5144 50.0081 52.6319 50.1402 52.7206 50.2912C52.8093 50.4422 52.8674 50.6092 52.8915 50.7827C52.9157 50.9561 52.9054 51.1326 52.8613 51.3021C52.8173 51.4716 52.7402 51.6308 52.6347 51.7705C50.5787 54.4932 46.936 56.5305 46.784 56.6158C46.5864 56.7251 46.3644 56.7828 46.1387 56.7838ZM46.4533 65.6638C46.1577 65.6645 45.8703 65.5668 45.6362 65.3863C45.4022 65.2058 45.2347 64.9526 45.1602 64.6665C45.0858 64.3805 45.1084 64.0778 45.2247 63.806C45.341 63.5342 45.5443 63.3088 45.8027 63.1652C45.8373 63.1438 49.1093 61.3092 50.824 59.0398C51.0419 58.7715 51.3555 58.5983 51.6987 58.5567C52.0419 58.5152 52.3878 58.6085 52.6635 58.8171C52.9391 59.0257 53.123 59.3332 53.1764 59.6747C53.2297 60.0163 53.1483 60.3652 52.9493 60.6478C50.8933 63.3705 47.2533 65.4078 47.0987 65.4932C46.9023 65.6059 46.6797 65.6648 46.4533 65.6638ZM44.5787 73.5038C44.2461 73.5025 43.9262 73.3769 43.6814 73.1518C43.4367 72.9267 43.285 72.6182 43.2559 72.287C43.2269 71.9558 43.3226 71.6256 43.5244 71.3614C43.7262 71.0971 44.0195 70.9177 44.3467 70.8585C44.384 70.8505 48.0773 70.1838 50.44 68.6025C50.585 68.5043 50.7481 68.4358 50.9198 68.401C51.0915 68.3662 51.2683 68.3657 51.4402 68.3997C51.612 68.4337 51.7754 68.5014 51.921 68.5989C52.0665 68.6964 52.1912 68.8218 52.288 68.9678C52.3859 69.113 52.4541 69.2761 52.4887 69.4477C52.5233 69.6193 52.5237 69.7961 52.4897 69.9678C52.4557 70.1396 52.3882 70.3029 52.2908 70.4485C52.1935 70.594 52.0684 70.7188 51.9227 70.8158C49.088 72.7145 44.9813 73.4532 44.808 73.4825C44.7325 73.4975 44.6556 73.5047 44.5787 73.5038ZM45.016 80.3332C42.016 80.3332 39.0187 79.4078 38.8747 79.3652C38.5374 79.2596 38.2559 79.0245 38.0919 78.7115C37.9279 78.3985 37.8948 78.0332 38 77.6958C38.0504 77.5279 38.1338 77.3717 38.2453 77.2364C38.3568 77.1011 38.4941 76.9893 38.6493 76.9076C38.8045 76.8259 38.9743 76.776 39.149 76.7607C39.3237 76.7454 39.4997 76.765 39.6667 76.8185C39.7013 76.8318 43.2933 77.9358 46.1147 77.6078C46.4554 77.5885 46.7906 77.7003 47.0515 77.9202C47.3124 78.1402 47.4793 78.4517 47.5178 78.7908C47.5564 79.1299 47.4637 79.4709 47.2588 79.7438C47.0539 80.0167 46.7524 80.2009 46.416 80.2585C45.951 80.3091 45.4837 80.334 45.016 80.3332ZM38.7333 85.7945C38.5309 85.7936 38.3313 85.7472 38.1493 85.6585C35.0853 84.1599 32.3893 80.9705 32.2773 80.8345C32.158 80.7013 32.0668 80.5455 32.0089 80.3764C31.9511 80.2072 31.9278 80.0281 31.9406 79.8498C31.9533 79.6715 32.0018 79.4975 32.0832 79.3383C32.1645 79.1791 32.277 79.0379 32.414 78.923C32.5511 78.8082 32.7098 78.7221 32.8808 78.6698C33.0517 78.6176 33.2315 78.6002 33.4093 78.6188C33.5871 78.6374 33.7594 78.6916 33.9158 78.7782C34.0723 78.8647 34.2097 78.9818 34.32 79.1225C34.344 79.1518 36.7733 82.0158 39.3227 83.2638C39.5934 83.3965 39.8112 83.617 39.9405 83.8894C40.0698 84.1618 40.103 84.4699 40.0346 84.7636C39.9662 85.0572 39.8003 85.3191 39.564 85.5063C39.3276 85.6935 39.0348 85.7951 38.7333 85.7945ZM29.52 86.7758C29.3145 86.7764 29.1117 86.7292 28.9275 86.638C28.7434 86.5469 28.5829 86.4142 28.4587 86.2505C26.392 83.5332 25.4107 79.4798 25.3707 79.3092C25.3093 78.973 25.3791 78.6261 25.5657 78.3398C25.7523 78.0536 26.0415 77.8497 26.3738 77.7701C26.7061 77.6905 27.0563 77.7413 27.3524 77.912C27.6484 78.0827 27.8677 78.3604 27.9653 78.6878C27.9733 78.7252 28.8613 82.3705 30.5813 84.6318C30.7327 84.8295 30.8257 85.0656 30.8498 85.3135C30.8739 85.5613 30.8281 85.8109 30.7177 86.034C30.6072 86.2572 30.4365 86.4449 30.2248 86.576C30.0131 86.7071 29.769 86.7764 29.52 86.7758ZM12.1973 69.4105C11.9543 69.4103 11.7159 69.3436 11.5081 69.2177C11.3002 69.0918 11.1306 68.9115 11.0178 68.6963C10.9049 68.481 10.8531 68.239 10.8678 67.9964C10.8825 67.7538 10.9633 67.5199 11.1013 67.3198C13.0373 64.5118 16.584 62.3145 16.7333 62.2238C17.0346 62.0385 17.3972 61.9805 17.7412 62.0625C18.0853 62.1446 18.3827 62.3599 18.568 62.6612C18.7533 62.9625 18.8113 63.325 18.7293 63.6691C18.6473 64.0131 18.4319 64.3105 18.1307 64.4958C18.0987 64.5172 14.9093 66.4958 13.2987 68.8372C13.1749 69.0144 13.0101 69.1591 12.8183 69.2589C12.6266 69.3588 12.4135 69.4108 12.1973 69.4105ZM13.0453 58.8665C12.7499 58.8678 12.4624 58.771 12.228 58.5913C11.9936 58.4115 11.8255 58.159 11.7501 57.8734C11.6747 57.5878 11.6963 57.2852 11.8116 57.0132C11.9268 56.7412 12.1291 56.5151 12.3867 56.3705C15.3573 54.6905 19.5067 54.2692 19.6827 54.2505C20.034 54.2185 20.3839 54.3262 20.6565 54.5503C20.929 54.7744 21.1022 55.0969 21.1387 55.4478C21.1729 55.7995 21.0664 56.1505 20.8425 56.4239C20.6186 56.6973 20.2955 56.8708 19.944 56.9065C19.9067 56.9092 16.1733 57.2958 13.6987 58.6932C13.5003 58.8083 13.2747 58.8682 13.0453 58.8665ZM26.1973 50.5812C26.0351 50.5804 25.8743 50.5506 25.7227 50.4932C25.688 50.4798 22.1893 49.1652 19.336 49.3065C18.9832 49.3225 18.6384 49.1988 18.3763 48.9621C18.1142 48.7255 17.956 48.3951 17.936 48.0425C17.927 47.8676 17.9526 47.6926 18.0112 47.5275C18.0699 47.3625 18.1605 47.2106 18.2779 47.0806C18.3953 46.9506 18.5371 46.845 18.6954 46.7698C18.8536 46.6946 19.025 46.6514 19.2 46.6425C22.6107 46.4852 26.512 47.9385 26.6747 48.0025C26.9658 48.1139 27.2087 48.3237 27.3612 48.5955C27.5137 48.8674 27.5661 49.184 27.5094 49.4905C27.4526 49.797 27.2903 50.0739 27.0506 50.2732C26.8109 50.4724 26.509 50.5814 26.1973 50.5812ZM35.3147 48.2185C35.1198 48.2189 34.9272 48.1764 34.7507 48.0939C34.5742 48.0113 34.418 47.8909 34.2933 47.7412C34.2693 47.7118 31.848 44.8425 29.2987 43.5865C28.9971 43.4214 28.771 43.1462 28.6675 42.8184C28.564 42.4906 28.5912 42.1354 28.7432 41.8271C28.8953 41.5188 29.1606 41.2812 29.4837 41.1638C29.8068 41.0464 30.1628 41.0584 30.4773 41.1972C33.536 42.7038 36.224 45.8985 36.3387 46.0318C36.5008 46.2265 36.6041 46.4633 36.6365 46.7146C36.6689 46.9659 36.6291 47.2212 36.5216 47.4506C36.4142 47.6801 36.2436 47.8742 36.0299 48.0101C35.8161 48.1461 35.568 48.2184 35.3147 48.2185ZM46.44 46.6452C46.2451 46.6456 46.0526 46.603 45.876 46.5205C45.6995 46.438 45.5433 46.3176 45.4187 46.1678C45.3947 46.1385 42.9733 43.2718 40.424 42.0132C40.1225 41.8481 39.8963 41.5729 39.7929 41.2451C39.6894 40.9172 39.7165 40.5621 39.8686 40.2538C40.0207 39.9455 40.286 39.7079 40.6091 39.5905C40.9322 39.4731 41.2881 39.4851 41.6027 39.6238C44.6613 41.1305 47.3493 44.3225 47.464 44.4558C47.6269 44.6505 47.731 44.8876 47.7638 45.1393C47.7967 45.391 47.757 45.6468 47.6495 45.8767C47.5419 46.1067 47.371 46.3011 47.1567 46.4372C46.9425 46.5734 46.6938 46.6455 46.44 46.6452ZM57.056 43.4052C56.7477 43.4061 56.4488 43.2995 56.2107 43.1038C56.1813 43.0798 53.2693 40.7118 50.5333 39.9492C50.1924 39.8544 49.9031 39.6281 49.7291 39.32C49.5551 39.012 49.5105 38.6474 49.6053 38.3065C49.7001 37.9656 49.9264 37.6763 50.2345 37.5023C50.5425 37.3283 50.9071 37.2837 51.248 37.3785C54.5333 38.2932 57.768 40.9305 57.904 41.0425C58.1161 41.2171 58.2691 41.453 58.342 41.7179C58.4149 41.9828 58.4042 42.2637 58.3114 42.5223C58.2186 42.7808 58.0482 43.0044 57.8235 43.1625C57.5988 43.3205 57.3307 43.4053 57.056 43.4052ZM65.8933 38.2238C65.6735 38.2236 65.4572 38.1686 65.264 38.0638C65.232 38.0452 61.92 36.2825 59.0907 36.0638C58.7381 36.0366 58.4108 35.8704 58.1808 35.6019C57.9507 35.3333 57.8368 34.9844 57.864 34.6318C57.901 34.2837 58.0696 33.9629 58.3352 33.7349C58.6009 33.5069 58.9436 33.3889 59.2933 33.4052C62.6933 33.6665 66.3733 35.6318 66.5307 35.7172C66.7921 35.8583 66.999 36.0827 67.1184 36.3548C67.2377 36.6269 67.2628 36.9311 67.1896 37.2191C67.1164 37.507 66.9491 37.7623 66.7142 37.9443C66.4794 38.1264 66.1904 38.2247 65.8933 38.2238ZM72.872 32.5118C72.725 32.5113 72.5792 32.487 72.44 32.4398C72.4027 32.4265 68.8027 31.2238 66.0187 31.4665C65.2827 31.5198 64.6373 30.9838 64.576 30.2505C64.5147 29.5172 65.0587 28.8718 65.7893 28.8078C69.192 28.5172 73.1413 29.8558 73.304 29.9145C73.6045 30.0154 73.8593 30.2201 74.0226 30.4918C74.1859 30.7635 74.247 31.0846 74.195 31.3973C74.1429 31.71 73.9812 31.994 73.7388 32.1982C73.4963 32.4025 73.189 32.5137 72.872 32.5118ZM88.008 16.8798C87.8955 16.8799 87.7835 16.8656 87.6747 16.8372C87.6373 16.8292 84.0027 15.9065 81.1947 16.3678C80.8456 16.4251 80.4881 16.3414 80.2008 16.1351C79.9135 15.9288 79.7199 15.6169 79.6627 15.2678C79.6054 14.9188 79.6891 14.5613 79.8954 14.274C80.1017 13.9867 80.4136 13.7931 80.7626 13.7358C84.1253 13.1838 88.1733 14.2078 88.3413 14.2532C88.6577 14.3324 88.9341 14.5249 89.1181 14.7942C89.3021 15.0635 89.3811 15.3908 89.34 15.7144C89.299 16.038 89.1407 16.3352 88.8953 16.55C88.6498 16.7648 88.3341 16.8821 88.008 16.8798ZM85.7867 10.5012C85.4638 10.5019 85.1516 10.3854 84.9081 10.1733C84.6647 9.96123 84.5064 9.66803 84.4628 9.34812C84.4191 9.0282 84.493 8.70332 84.6708 8.43378C84.8485 8.16424 85.1181 7.96836 85.4293 7.88251C88.7173 6.96251 92.8453 7.55451 93.024 7.57851C93.1972 7.60372 93.3637 7.6628 93.514 7.75236C93.6644 7.84193 93.7956 7.96022 93.9002 8.1005C94.0048 8.24078 94.0808 8.40029 94.1238 8.56993C94.1667 8.73957 94.1759 8.91601 94.1507 9.08918C94.1254 9.26235 94.0664 9.42885 93.9768 9.57919C93.8872 9.72953 93.7689 9.86076 93.6287 9.96538C93.4884 10.07 93.3289 10.146 93.1592 10.1889C92.9896 10.2319 92.8132 10.2411 92.64 10.2158C92.6027 10.2105 88.88 9.68784 86.1493 10.4478C86.032 10.4847 85.9096 10.5027 85.7867 10.5012Z" fill="black" fill-opacity="0.53"/>
</svg>
